/* XPM */
static char *bde3e575f7f64ee5f99d87be15a31548EGhnKlVtWK9TqqqW[] = {
/* columns rows colors chars-per-pixel */
"64 64 200 2 ",
"   c #150E0B",
".  c #1B0E08",
"X  c #14120D",
"o  c #19110E",
"O  c #0E0F11",
"+  c #0F1011",
"@  c #131313",
"#  c #191213",
"$  c #161618",
"%  c #1A1B1A",
"&  c #260E08",
"*  c #231109",
"=  c #3E1108",
"-  c #261917",
";  c #391614",
":  c #28211C",
">  c #292929",
",  c #312A25",
"<  c #36302A",
"1  c #353636",
"2  c #383837",
"3  c #383838",
"4  c #571B0E",
"5  c #451513",
"6  c #591B17",
"7  c #581C18",
"8  c #641E13",
"9  c #621E1B",
"0  c #57311B",
"q  c #67271C",
"w  c #68201B",
"e  c #752D1C",
"r  c #5A2627",
"t  c #762D24",
"y  c #7B2B23",
"u  c #5E4A3A",
"i  c #454646",
"p  c #474749",
"a  c #48494A",
"s  c #565048",
"d  c #605244",
"f  c #6A5748",
"g  c #705542",
"h  c #615B54",
"j  c #626364",
"k  c #6D6E6E",
"l  c #777778",
"z  c #92260F",
"x  c #8F251D",
"c  c #8A2B1D",
"v  c #932614",
"b  c #92251D",
"n  c #9C2B1E",
"m  c #A32C19",
"M  c #A4311D",
"N  c #AB3519",
"B  c #862924",
"V  c #952420",
"C  c #823424",
"Z  c #A93423",
"A  c #AB3A26",
"S  c #B33C23",
"D  c #B63E2C",
"F  c #C6232E",
"G  c #CA232E",
"H  c #C62431",
"J  c #CD2531",
"K  c #D32733",
"L  c #DA2C37",
"P  c #D72D38",
"I  c #E22D3B",
"U  c #E5333D",
"Y  c #EA333E",
"T  c #9D4330",
"R  c #A94225",
"E  c #B54125",
"W  c #B84929",
"Q  c #AD4B30",
"!  c #B04A34",
"~  c #C2481F",
"^  c #C54525",
"/  c #C64B24",
"(  c #C94B25",
")  c #C34529",
"_  c #C94429",
"`  c #C24A2D",
"'  c #C94C2A",
"]  c #C85224",
"[  c #CA5427",
"{  c #CA5229",
"}  c #D0572D",
"|  c #D3592E",
" . c #C65839",
".. c #D35E32",
"X. c #D4632D",
"o. c #D26C2E",
"O. c #D46131",
"+. c #DA6334",
"@. c #DD6B36",
"#. c #D7653A",
"$. c #DE6D38",
"%. c #E26E3C",
"&. c #E07537",
"*. c #E1743A",
"=. c #E27D3A",
"-. c #DF3F47",
";. c #EB3741",
":. c #E63944",
">. c #E43B45",
",. c #EB3942",
"<. c #B65E4E",
"1. c #8C6A4B",
"2. c #976F4E",
"3. c #8F755D",
"4. c #BC6750",
"5. c #B96B52",
"6. c #DE5F58",
"7. c #ED464F",
"8. c #F1424D",
"9. c #EE4750",
"0. c #EE4B52",
"q. c #F44952",
"w. c #F84C57",
"e. c #E85B5C",
"r. c #F5555D",
"t. c #F9545E",
"y. c #F05A5D",
"u. c #DA6A48",
"i. c #D67A59",
"p. c #E77343",
"a. c #E3675B",
"s. c #F65961",
"d. c #D57E62",
"f. c #EF6C66",
"g. c #F5696A",
"h. c #EF7166",
"j. c #F77E6A",
"k. c #F17D72",
"l. c #DC8F3C",
"z. c #C3855C",
"x. c #E68942",
"c. c #E89748",
"v. c #E0815B",
"b. c #EDAB52",
"n. c #F1A952",
"m. c #CA8969",
"M. c #D58062",
"N. c #D89975",
"B. c #E58165",
"V. c #E8986B",
"C. c #E18F71",
"Z. c #F28477",
"A. c #ED997D",
"S. c #DCA172",
"D. c #DEA67F",
"F. c #E7A476",
"G. c #F1A17D",
"H. c #828282",
"J. c #8A8B8B",
"K. c #8E8F90",
"L. c #969797",
"P. c #A2A3A4",
"I. c #AEADAE",
"U. c #B7B8B9",
"Y. c #BCBCBC",
"T. c #DC9D80",
"R. c #F59E8D",
"E. c #D4AD89",
"W. c #F5A788",
"Q. c #F0B087",
"!. c #E6AF94",
"~. c #EDA49A",
"^. c #F2B390",
"/. c #EEC39B",
"(. c #F4C79D",
"). c #FCC69D",
"_. c #F5C99E",
"`. c #D4C6AF",
"'. c #EBC9A6",
"]. c #F2C4A6",
"[. c #FBC4A0",
"{. c #F4CAA3",
"}. c #FACAA4",
"|. c #FBD0AF",
" X c #F9CDB7",
".X c #F8D6B6",
"XX c #C4C5C5",
"oX c #CBCBCB",
"OX c #D4D5D5",
"+X c #DDDDDD",
"@X c #F5DBC0",
"#X c #FCDCC7",
"$X c #F8E5C9",
"%X c #FAE5CD",
"&X c #F9E6D0",
"*X c #E4E4E4",
"=X c #EDEDED",
"-X c #EFEFF0",
";X c #F4F5F5",
":X c #FFFFFF",
/* pixels */
":X:X:X:X:X:X:X:X:X:X:X:X:X:X:X:X:X:X:X:X:X:X:X:X:X:X:X:X:X:X:X:X:X:X:X:X:X:X:X:X:X:X:X:X:X:X:X:X:X:X:X:X:X:X:X:X:X:X:X:X:X:X:X:X",
":X:X:X:X:X:X:X:X:X:X:X:X:X:X:X:X:X:X:X:X:X:X:X:X:X:X:X:X:X:X:X:X:X:X:X:X:X:X:X:X:X:X:X:X:X:X:X:X:X:X:X:X:X:X:X:X:X:X:X:X:X:X:X:X",
":X:X:X:X:X:X:X:X:X:X:X:X:X:X:X:X:X:X:X:X:X:X:X:X:X:X:X:X:X:X:X:X:X:X:X:X:X:X:X:X:X:X:X:X:X:X:X:X:X:X:X:X:X:X:X:X:X:X:X:X:X:X:X:X",
":X:X:X:X:X:X:X:X:X:X:X:X:X:X:X:X:X:X:X:X:X:X:X:X:X:X:X:X:X:X:X:X:X:X:X:X:X:X:X:X:X:X:X:X:X:X:X:X:X:X:X:X:X:X:X:X:X:X:X:X:X:X:X:X",
":X:X:X:X:X:X:X:X:X:X:X:X:X:X:X:X:X:X:X:X:X:X:X:X:X:X:X:X:X:X:X:X:X:X:X:X:X:X:X:X:X:X:X:X:X:X:X:X:X:X:X:X:X:X:X:X:X:X:X:X:X:X:X:X",
":X:X:X:X:X:X:X:X:X:X:X:X:X:X:X:X:X:X:X:X:X:X:X:X:X:X:X:X:X:X:X:X:X:X:X:X:X:X:X:X:X:X:X:X:X:X:X:X:X:X:X:X:X:X:X:X:X:X:X:X:X:X:X:X",
":X:X:X:X:X:X:X:X:X:X:X:X:X:X:X:X:X:X:X:X:X:X:X:X:X:X:X:X:X:X:X:X:X:X:X:X:X:X:X:X:X:X:X:X:X:X:X:X:X:X:X:X:X:X:X:X:X:X:X:X:X:X:X:X",
":X:X:X:X:X:X:X:X:X:X:X:X:X:X:X:X:X:X:X:X:X:X:X:X:X:X:X:X:X:X:X:X:X:X:X:X:X:X:X:X:X:X:X:X:X:X:X:X:X:X:X:X:X:X:X:X:X:X:X:X:X:X:X:X",
":X:X:X:X:X:X:X:X:X:X:X:X:X:X:X:X:X:X:X:X:X:X:X:X:X:X:X:X:X:X:X:X:X:X:X:X:X:X:X:X:X:X:X:X:X:X:X:X:X:X:X:X:X:X:X:X:X:X:X:X:X:X:X:X",
":X:X:X:X:X:X:X:X:X:X:X:X:X:X:X:X:X:X:X:X:X:X:X:X:X:X:X:X:X:X:X:X:X:X:X:X:X:X:X:X:X:X:X:X:X:X:X:X:X:X:X:X:X:X:X:X:X:X:X:X:X:X:X:X",
":X:X:X:X:X:X:X:X:X:X:X:X:X:X:X:X:X:X:X:X:X:X:X:X:X:X:X:X:X:X:X:X:X:X:X:X:X:X:X:X:X:X:X:X:X:X:X:X:X:X:X:X:X:X:X:X:X:X:X:X:X:X:X:X",
":X:X:X:X:X:X:X:X:X:X:X:X:X:X:X:X:X:X:X:X:X:X:X:X:X:X:X:X:X:X:X:X:X:X:X:X:X:X:X:X:X:X:X:X:X:X:X:X:X:X:X:X:X:X:X:X:X:X:X:X:X:X:X:X",
":X:X:X:X:X:X:X:X:X:X:X:X:X:X:X:X:X:X:X:X:X:X:X:X:X:X:X:X:X:X:X:X:X:X:X:X:X:X:X:X:X:X:X:X:X:X:X:X:X:X:X:X:X:X:X:X:X:X:X:X:X:X:X:X",
":X:X:X:X:X:X:X:X:X:X:X:X:X:X:X:X:X:X:X:X:X:X:X:X:X:X:X:X:X:X:X:X:X:X:X:X:X:X:X:X:X:X:X:X:X:X:X:X:X:X:X:X:X:X:X:X:X:X:X:X:X:X:X:X",
":X:X:X:X:X:X:X:X:X:X:X:X:X:X:X:X:X:X:X:X:X:X:X:X:X:X:X:X:X:X:X:X:X:X:X:X:X:X:X:X:X:X:X:X:X:X:X:X:X:X:X:X:X:X:X:X:X:X:X:X:X:X:X:X",
":X:X:X:X:X:X:X:X:X:X:X:X:X:X:X:X:X:X:X:X:X:X:X:X:X:X:X:X:X:X:X:X:X:X:X:X:X:X:X:X:X:X:X:X:X:X:X:X:X:X:X:X:X:X:X:X:X:X:X:X:X:X:X:X",
":X:X:X:X:X:X:X:X:X:X:X:X:X:X:X:X:X:X:X:X:X:X:X:X:X:X:X:X:X:X:X:X:X:X:X:X:X:X:X:X:X:X:X:X:X:X:X:X:X:X:X:X:X:X:X:X:X:X:X:X:X:X:X:X",
":X:X:X:X:X:X:X:X:X:X:X:X:X:X:X:X:X:X:X:X:X:X:X:X:X:X:X:X:X:X:X:X:X:X:X:X:X:X:X:Xj 3 3 3 3 3 2 2 2 3 2 :X:X:X:X:X:X:X:X:X:X:X:X:X",
":X:X:X:X:X:X:X:X:X:X:X:X:X:X:X:X:X:X:X:X:X:X:X:X:X:X:X:X:X:X:X:X:X:X:X:X:X@ @ @ @ @ o o o o o o @ @ @ @ K.:X:X:X:X:X:X:X:X:X:X:X",
":X:X:X:X:X:X:X:X:X:X:X:X:X:X:X:X:X:X:X:X:X:X:X:X:X:X:X:X:X:X:X:X:X:X:X:X$ @ @ @ @ ; y Q ! Q Q ! ]._.X @ % :X:X:X:X:X:X:X:X:X:X:X",
":X:X:X:X:X:X:X:X:X:X:X:X:X:X:X:X:X:X:X:X:X:X:X:X:X:X:X:X:X:X:X:X:X:X@ @ @ 7 7 8 e c N O...^  .T.{.{.3.# @ H.:X:X:X:X:X:X:X:X:X:X",
":X:X:X:X:X:X:X:X:X:X:X:X:X:X:X:X:X:X:X:X:X:X:X:X:X:X:X:X:X:X:X:X@ @ @ B B ^ ` ^ @.%.%.X./ W $X$X[.f.}.D.f @ I.:X:X:X:X:X:X:X:X:X",
":X:X:X:X:X:X:X:X:X:X:X:X:X:X:X:X:X:X:X:X:X:X:X:X:X:X:X:X:X:X@ @ @ 7 C S S +.{ [ c.x.*.X.` !.%X|.k.s.Z.V.g @ a J.:X:X:X:X:X:X:X:X",
":X:X:X:X:X:X:X:X:X:X:X:X:X:X:X:X:X:X:X:X:X:X:X:X:X:X:X:X:X@ # ; ; b { ^ ( =.o.o.b.c.*.| ` %X.X^.r.r.y.G.1.o @ p :X:X:X:X:X:X:X:X",
":X:X:X:X:X:X:X:X:X:X:X:X:X:X:X:X:X:X:X:X:X:X:X:X:X:X:X> @ o t E #.@.*.%.x.n.b.b.l.=.%.i.]. Xh.r.r.:.:.f.A.X @ a :X:X:X:X:X:X:X:X",
":X:X:X:X:X:X:X:X:X:X:X:X:X:X:X:X:X:X:X:X:X:X:X:X:X:X:X@ @ 5 Z } *.*.*.*.c.b.c.c.=.%.+.C.$XR.q.q.r.Y L r.A.o @ 2 :X:X:X:X:X:X:X:X",
":X:X:X:X:X:X:X:X:X:X:X:X:X:X:X:X:X:X:X:X:X:X:X:X:X:X@ # & v ] *.*.*.*.*.c.b.x.&.&.O.^ N.#Xy.Y :.s.;.G t.A.X @ @ :X:X:X:X:X:X:X:X",
":X:X:X:X:X:X:X:X:X:X:X:X:X:X:X:X:X:X:X:X:X:X:X:X:X@ o C ^ | *.*.*.*.*.*.*.*.*.*.X.} W .X Xy.L H t.;.G L a.}.d @ :X:X:X:X:X:X:X:X",
":X:X:X:X:X:X:X:X:X:X:X:X:X:X:X:X:X:X:X:X:X:X:X:X@ @ * Z ( *.*.*.*.*.*.*.*.*.*.*.] ^ W .X^.r.F H r.;.F H -.[.d @ :X:X:X:X:X:X:X:X",
":X:X:X:X:X:X:X:X:X:X:X@ @ @ @ @ :X:X:X:X:X@ @ @ # 5 z | *.*.*.*.*./ p.( X.*.*.*.] ^ W ~.y.t.H F r.,.F F -.[.d @ :X:X:X:X:X:X:X:X",
":X:X:X:X:X:X:X:X*XL.@ - , < , @ @ :X:X:X@ @ - - T ^ ~ *.*.@.*.$.^ +.^ ^ ^ ^ ^ [ / '  .~.r.Y I J r.g.U Y 7.[.d @ :X:X:X:X:X:X:X:X",
":X:X:X:X:X:X:X:Xi + X g S.).E.@ @ @ @ @ X @ C ) _ ^ / *.*.~ $.( ^ ^ ) ^ ^ ^ ^ ^ ^ i.{.~.r.U J U e. X:.Y 7.[.d @ :X:X:X:X:X:X:X:X",
":X:X:X:X:X:X:XoX@ @ o $X$XS.F.).@ @ @ @ e ) ) ) ) ) ^ ^ ^ ^ ^ ^ _ _ ) ) _ _ ^ ^ ^ d.$X~.r.Y ;.y.[.#Xr.t.t.[.d @ :X:X:X:X:X:X:X:X",
":X:X:X:X:X:X:XoX@ s `.%X%X@X.XF.E.E.z.R E ) ) ) ) ) ^ ^ ^ ^ ^ ^ _ _ ) ) _ _ ^ ^ ^ i.$X~.t.Y ;.y.[.}.,.t.r.[.d @ :X:X:X:X:X:X:X:X",
":X:X:X:X:X:X:XoX@ h &X%X%X%X%X$X%X$X(.V.u.^ ^ ^ _ _ ^ ^ ^ ^ ^ ^ _ ^ ^ ) _ _ ^ ^ ^ d.$Xy.r.t.t.y.[.g.G U 0.[.d @ :X:X:X:X:X:X:X:X",
":X:X:X:X:X:X:XoX@ h %X%X%X%X%X%X%X%X{.(.v.^ ^ ^ ^ ^ ^ ^ ^ ^ ^ ^ ^ ^ ^ ^ ^ ^ ^ ^ ^ d.$X9.Y Y ;.r.s.,.F H :.[.d @ :X:X:X:X:X:X:X:X",
":X:X:X:X:X:X:XoX@ d .X%X%X%X%X%X%X.X{.5. .^ ^ ^ ^ ^ ^ ^ ^ ^ ^ ^ ^ ^ ^ ^ ^ ^ ^ ^ ^ d.$X7.Y K P 8.t.;.F L a.Q.u @ :X:X:X:X:X:X:X:X",
":X:X:X:X:X:X:X:Xp @ * {.{.'.        . y b b b V S ^ ^ ^ ^ ^ ^ ^ ^ ^ ^ ^ ^ ^ ^ ^ ^ M.$X7.Y H H F t.;.;.t.B.* o @ :X:X:X:X:X:X:X:X",
":X:X:X:X:X:X:X:Xi @ @ d d d @ @ @ @ @ ; 5 B x x n M M M M ^ ^ ^ M ^ M ^ S ) ^ ^ ^ d.$X9.Y H H L t.q.0.j.V.X @ 2 :X:X:X:X:X:X:X:X",
":X:X:X:X:X:X:X:Xk 1 @ @ @ @ % i i i i @ @ r q q B x x b b E S E m D m E Z D ) ) ) d.$X0.:.K K U r.r.a.V.m.  @ i :X:X:X:X:X:X:X:X",
":X:X:X:X:X:X:X:X:X:X:X:X:X:X:X:X:X:X:X:X:X@ @ @ - ; = x x x x x n V n b n E Z M M 4.|.Z.r.w.;.q.y.W.N.0 : @ K.:X:X:X:X:X:X:X:X:X",
":X:X:X:X:X:X:X:X:X:X:X:X:X:X:X:X:X:X:X:X:Xj j j i @ # 9 9 9 w x x x b x x A n n n <.{.W.k.r.8.r.k.Q.2.$ @ j :X:X:X:X:X:X:X:X:X:X",
":X:X:X:X:X:X:X:X:X:X:X:X:X:X:X:X:X:X:X:X:X:X:X::X.+ X @ @ @ - y y y y y c x x x b <.}._.).6.e.6.}.D.@ @ @ :X:X:X:X:X:X:X:X:X:X:X",
":X:X:X:X:X:X:X:X:X:X:X:X:X:X:X:X:X:X:X:X:X:X:X:X:X:X:XH.H.H.k @ @ @ @ @ ; 6 6 6 6 6 4 Q._._.(.^.3.> @ l XX:X:X:X:X:X:X:X:X:X:X:X",
":X:X:X:X:X:X:X:X:X:X:X:X:X:X:X:X:X:X:X:X:X:X:X:X:X:X:X:X:X:X+X% % % % % % @ @ @ @ @ . m.'./.^.N.# # % :X:X:X:X:X:X:X:X:X:X:X:X:X",
":X:X:X:X:X:X:X:X:X:X:X:X:X:X:X:X:X:X:X:X:X:X:X:X:X:X:X:X:X:X:X:X:X:X:X:XH.@ @ @ @ @ @ X @ @ @ X @ @ :X:X:X:X:X:X:X:X:X:X:X:X:X:X",
":X:X:X:X:X:X:X:X:X:X:X:X:X:X:X:X:X:X:X:X:X:X:X:X:X:X:X:X:X:X:X:X:X:X:X:X:X:X:X:X:X:X:X3 3 3 3 3 2 +X:X:X:X:X:X:X:X:X:X:X:X:X:X:X",
":X:X:X:X:X:X:X:X:X:X:X:X:X:X:X:X:X:X:X:X:X:X:X:X:X:X:X:X:X:X:X:X:X:X:X:X:X:X:X:X:X:X:X:X:X:X:X:X:X:X:X:X:X:X:X:X:X:X:X:X:X:X:X:X",
":X:X:X:X:X:X:X:X:X:X:X:X:X:X:X:X:X:X:X:X:X:X:X:X:X:X:X:X:X:X:X:X:X:X:X:X:X:X:X:X:X:X:X:X:X:X:X:X:X:X:X:X:X:X:X:X:X:X:X:X:X:X:X:X",
":X:X:X:X:X:X:X:X:X:X:X:X:X:X:X:X:X:X:X:X:X:X:X:X:X:X:X:X:X:X:X:X:X:X:X:X:X:X:X:X:X:X:X:X:X:X:X:X:X:X:X:X:X:X:X:X:X:X:X:X:X:X:X:X",
":X:X:X:X:X:X:X:X:X:X:X:X:X:X:X:X:X:X:X:X:X:X:X:X:X:X:X:X:X:X:X:X:X:X:X:X:X:X:X:X:X:X:X:X:X:X:X:X:X:X:X:X:X:X:X:X:X:X:X:X:X:X:X:X",
":X:X:X:X:X:X:X:X:X:X:X:X:X:X:X:X:X:X:X:X:X:X:X:X:X:X:X:X:X:X:X:X:X:X:X:X:X:X:X:X:X:X:X:X:X:X:X:X:X:X:X:X:X:X:X:X:X:X:X:X:X:X:X:X",
":X:X:X:X:X:X:X:X:X:X:X:X:X:X:X:X:X:X:X:X:X:X:X:X:X:X:X:X:X:X:X:X:X:X:X:X:X:X:X:X:X:X:X:X:X:X:X:X:X:X:X:X:X:X:X:X:X:X:X:X:X:X:X:X",
":X:X:X:X:X:X:X:X:X:X:X:X:X:X:X:X:X:X:X:X:X:X:X:X:X:X:X:X:X:X:X:X:X:X:X:X:X:X:X:X:X:X:X:X:X:X:X:X:X:X:X:X:X:X:X:X:X:X:X:X:X:X:X:X",
":X:X:X:X:X:X:X:X:X:X:X:X:X:X:X:X:X:X:X:X:X:X:X:X:X:X:X:X:X:X:X:X:X:X:X:X:X:X:X:X:X:X:X:X:X:X:X:X:X:X:X:X:X:X:X:X:X:X:X:X:X:X:X:X",
":X:X:X:X:X:X:X:X:X:X:X:X:X:X:X:X:X:X:X:X:X:X:X:X:X:X:X:X:X:X:X:X:X:X:X:X:X:X:X:X:X:X:X:X:X:X:X:X:X:X:X:X:X:X:X:X:X:X:X:X:X:X:X:X",
":X:X:X:X:X:X:X:X:X:X:X:X:X:X:X:X:X:X:X:X:X:X:X:X:X:X:X:X:X:X:X:X:X:X:X:X:X:X:X:X:X:X:X:X:X:X:X:X:X:X:X:X:X:X:X:X:X:X:X:X:X:X:X:X",
":X:X:X:X:X:X:X:X:X:X:X:X:X:X:X:X:X:X:X:X:X:X:X:X:X:X:X:X:X:X:X:X:X:X:X:X:X:X:X:X:X:X:X:X:X:X:X:X:X:X:X:X:X:X:X:X:X:X:X:X:X:X:X:X",
":X:X:X:X:X:X:X:X:X:X:X:X:X:X:X:X:X:X:X:X:X:X:X:X:X:X:X:X:X:X:X:X:X:X:X:X:X:X:X:X:X:X:X:X:X:X:X:X:X:X:X:X:X:X:X:X:X:X:X:X:X:X:X:X",
":X:X:X:X:X:X:X:X:X:X:X:X:X:X:X:X:X:X:X:X:X:X:X:X:X:X:X:X:X:X:X:X:X:X:X:X:X:X:X:X:X:X:X:X:X:X:X:X:X:X:X:X:X:X:X:X:X:X:X:X:X:X:X:X",
":X:X:X:X:X:X:X:X:X:X:X:X:X:X:X:X:X:X:X:X:X:X:X:X:X:X:X:X:X:X:X:X:X:X:X:X:X:X:X:X:X:X:X:X:X:X:X:X:X:X:X:X:X:X:X:X:X:X:X:X:X:X:X:X",
":X:X:X:X:X:X:X:X:X:X:X:X:X:X:X:X:X:X:X:X:X:X:X:X:X:X:X:X:X:X:X:X:X:X:X:X:X:X:X:X:X:X:X:X:X:X:X:X:X:X:X:X:X:X:X:X:X:X:X:X:X:X:X:X",
":X:X:X:X:X:X:X:X:X:X:X:X:X:X:X:X:X:X:X:X:X:X:X:X:X:X:X:X:X:X:X:X:X:X:X:X:X:X:X:X:X:X:X:X:X:X:X:X:X:X:X:X:X:X:X:X:X:X:X:X:X:X:X:X",
":X:X:X:X:X:X:X:X:X:X:X:X:X:X:X:X:X:X:X:X:X:X:X:X:X:X:X:X:X:X:X:X:X:X:X:X:X:X:X:X:X:X:X:X:X:X:X:X:X:X:X:X:X:X:X:X:X:X:X:X:X:X:X:X"
};
