/* XPM */
static char *_5530ee8dafc44f5f81d5d5f29ed8bf8kNiYCvtyM8aQVSpy[] = {
/* columns rows colors chars-per-pixel */
"128 64 4 1 ",
"  c #8C6346",
". c #388C46",
"X c #47B347",
"o c #B38E74",
/* pixels */
"                                                                ................................................................",
"                                                                ................................................................",
"                                                                ................................................................",
"                                                                ................................................................",
"                                                                ................................................................",
"                                                                ................................................................",
"                                                                ................................................................",
"                                                                ................................................................",
"                                oo                              ..............................................XXX...............",
"                               oooo                             .............................................XXX................",
"                               oooo                             ............................................XXX.................",
"                                oo                              ...........................................XXX..................",
"                                                                ............................................XX..................",
"                                                                ............................................XX..................",
"                                                                .............................................X..................",
"                                                                .............................................X..................",
"                                                                ................................................................",
"                                                                ................................................................",
"                                                                ................................................................",
"                                                                ..........X.....................................................",
"                                                                .........XXX.........X..........................................",
"                                                                ........XXXXX......XXX..........................................",
"                                                                ..........XXXX....XXX...........................................",
"                                                                ...........XXX....XX............................................",
"                                                                ............XX....XX............................................",
"                                                                ............XX....XX............................................",
"                                                                .............X..................................................",
"                                                                ................................................................",
"                                                                ................................................................",
"                                                                ................................................................",
"                                                                ................................................................",
"                                                                ................................................................",
"                                                                ................................................................",
"                                                                ................................................................",
"                                                                ................................................................",
"                                                                ................................................................",
"                                                                ................................................................",
"                                                                ................................................................",
"                                                                ................................................................",
"                                                                ................................................................",
"        oooooo                                                  ................................................................",
"       oooooooo                                                 ................................................................",
"      oooooooooo                                                ................................................................",
"      oooooooooo                                                ................................................................",
"        ooooooo                                                 ................................................XXX.............",
"         ooooo                                                  ...............................................XXX.X............",
"                                                                .......................................XXX....XXX...............",
"                                                                ........................................XXX...XX................",
"                                                                .........................................XXX..XX................",
"                                                                ..........................................XX..XX................",
"                                                                ...........................................X..XX................",
"                                                                ...........................................X...X................",
"                              oo                                ................................................................",
"                             oooo                               ................................................................",
"                            ooooo                               .....................XXX........................................",
"                            oooo                                ......................XXX.......................................",
"                            ooo                                 .......................XXX......................................",
"                            oo                                  ........................XX......................................",
"                                                                ........................XX......................................",
"                                                                .........................X......................................",
"                                                                ................................................................",
"                                                                ................................................................",
"                                                                ................................................................",
"                                                                ................................................................"
};
